<?xml version="1.0" standalone="no"?><!DOCTYPE svg PUBLIC "-//W3C//DTD SVG 1.1//EN" "http://www.w3.org/Graphics/SVG/1.1/DTD/svg11.dtd"><svg t="1636187524118" class="icon" viewBox="0 0 1024 1024" version="1.1" xmlns="http://www.w3.org/2000/svg" p-id="2489" xmlns:xlink="http://www.w3.org/1999/xlink" width="200" height="200"><defs><style type="text/css"></style></defs><path d="M181.29856 735.666018 50.82662 735.666018c-26.9917 0-48.913637 21.808814-48.913637 48.666604 0 26.85899 21.921737 48.667803 48.913637 48.667803l130.47194 0c27.039068 0 48.955408-21.805416 48.955408-48.667603C230.253968 757.470435 208.327834 735.666018 181.29856 735.666018zM230.253968 508.493841c0-26.910355-21.926134-48.714971-48.955408-48.714971L50.82662 459.77887c-26.9917 0-48.913637 21.804417-48.913637 48.714971 0 26.899762 21.921737 48.666604 48.913637 48.666604l130.47194 0C208.337627 557.159446 230.253968 535.396801 230.253968 508.493841zM230.248771 232.647465c0-26.905158-21.927133-48.667603-48.960805-48.667603L50.815827 183.979862c-26.986303 0-48.907041 21.762645-48.907041 48.667603 0 26.85779 21.921737 48.666604 48.907041 48.666604l130.473139 0C208.327834 281.314269 230.248771 259.510852 230.248771 232.647465zM1023.979022 86.598286c0-26.881574-30.251489-48.667803-67.501234-48.667803l-50.348064 0-17.216927 0-218.343363 0 0-0.005396L148.690268 37.925087c-27.033671 0-48.90824 21.788427-48.90824 48.667803l0 48.667803 81.511135 0c54.073738 0 97.869045 43.61323 97.869045 97.381575 0 53.762949-43.795307 97.37518-97.869045 97.37518L99.782028 330.017448l0 81.130394 81.511135 0c54.073738 0 97.869045 43.567062 97.869045 97.335407s-43.795307 97.334407-97.869045 97.334407L99.782028 605.817656l0 81.128195 81.511135 0c54.073738 0 97.869045 43.61423 97.869045 97.383774 0 53.762949-43.795307 97.37518-97.869045 97.37518L99.782028 881.704804l0 48.625832c0 26.90296 21.879766 48.714971 48.90824 48.714971l481.412802 0 40.467563 0L888.913796 979.045607l0 0.005396 67.564791 0 0-0.010793c37.248745 0 67.501234-21.807614 67.501234-48.710574l0-843.73095L1023.979022 86.598686zM426.486122 366.201116c0-20.389576 0-38.4955 0-54.372336 0-4.51374-1.59272-11.309332-4.740586-20.389576-1.591721-9.02668-2.369793-15.823272-2.369793-20.389576 0-6.796592 1.555146-13.592984 4.739587-20.389576 6.295731-6.796592 14.998631-11.309332 26.071524-13.592984 1.555146 0 4.740586 2.282652 9.481172 6.796592 3.147866 2.282652 6.295731 3.398296 9.480172 3.398296 9.480172 0 19.738217 0 30.81111 0 14.220758 2.282652 35.551696 2.282652 63.993013 0 26.848597-2.230088 48.179534-3.398296 63.993013-3.398296-1.59272-4.51394-3.18544-12.424976-4.740586-23.787872-1.591721-9.02668-2.369793-18.105924-2.369793-27.186168 0-11.309332 3.924739-16.99128 11.850965-16.99128 4.739587 0 11.850965 1.168208 21.329938 3.398296 7.888452 2.282652 14.99983 2.282652 21.331137 0l2.369593 0c7.888452 0 11.850965 4.566504 11.850965 13.592984 0 4.566504-0.814648 7.9646-2.369793 10.194888-1.591721 4.566504-1.591721 7.9646 0 10.194688-3.184441 6.796592-4.739587 16.99128-4.739587 30.584464 63.177166 0 126.392106 0 189.607046 0l2.370793 0c7.887252 0 11.849766 2.282652 11.849766 6.796592 0 6.796592-0.814648 13.592984-2.369593 20.389576-1.591721 6.796592-1.591721 12.47754 0 16.99128-1.591721 2.282652-1.591721 4.566504 0 6.796592l2.369593 6.796592c0 9.079244-3.962513 13.592984-11.849766 13.592984l-2.370793-3.398296c-12.665613 0-48.216109 0-106.653889 0l-130.358017 0c-15.812279 0-32.402831 0-49.772454 0-44.253596-2.230088-76.656427-2.230088-97.173716 0l-2.369793 3.398296-2.369793 0-2.369793 248.072207c-4.740586 185.788036-28.441317 280.886759-71.103392 285.452263-18.960145 0-37.143417-12.47854-54.511841-37.380856 48.957607-45.293091 73.473185-159.718511 73.473185-343.222695 0-9.02668 0-18.105924 0-27.186168C428.855916 409.26292 428.041268 384.360604 426.486122 366.201116zM853.102876 573.494171c1.555146 15.876836 2.369593 26.071524 2.369593 30.584464-1.591721 13.592984-5.554234 22.673427-11.850965 27.186168l-7.10918 0c-9.481172 2.283652-17.406199 1.168208-23.700731-3.398296-15.812279 0-30.81111 0-45.031669 0-9.481172 2.283652-22.145585 2.283652-37.921489 0-14.220758 0-24.515379-1.114444-30.81111-3.398296 0 13.592984 0 27.186168 0 40.779152l123.24544 0c4.739387-2.230088 9.479973-3.398296 14.220558-3.398296 15.775904 6.796592 25.255877 18.160687 28.441317 33.98276 0 4.567503-2.369793 10.195887-7.110379 16.992479l-2.369793 6.796592 0 98.548584c-1.591721 4.566504-1.591721 9.080244 0 13.592984 1.555146 2.283652 2.369793 4.51294 2.369793 6.796592 0 15.823072-7.923828 23.787872-23.699732 23.787872-7.925027 0-14.220558-1.168208-18.961344-3.398096-42.662075-2.282652-85.322951-3.398296-127.985026-3.398296-42.662075 0-85.322951 1.115644-127.985026 3.398296-11.072893 4.51374-21.330938 6.796392-30.812109 6.796392-12.665613 0-18.960145-7.9646-18.960145-23.787872-1.591721-4.566304-0.814648-7.911036 2.369793-10.194688 1.555146-6.796592 2.369793-12.424976 2.369793-16.99128l-2.369793-101.94688-2.369793-6.796592c-1.591721-6.797591-2.369793-12.424976-2.369793-16.992479 1.555146-13.592984 8.665325-23.787872 21.329938-30.584464 7.888452 2.283652 15.775704 4.566304 23.700731 6.796592l92.43433 0 0-40.779152-21.330938 0c-31.625758 0-55.326489 1.168208-71.102193 3.398296-6.332307 0-13.442686 1.168208-21.329938 3.398296-7.925027 2.283852-14.221758 2.283852-18.961344 0-11.072893 2.283852-15.812279-1.114444-14.220758-10.194888-1.591721-2.230088-1.591721-7.911036 0-16.99128 1.555146-6.796592 2.369793-12.424976 2.369793-16.99128 0-9.02668 3.147866-16.99128 9.481172-23.787872 7.887252-2.230088 16.590352-3.398296 26.071524-3.398296 7.887252 0 13.405911 1.168208 16.590352 3.398296l92.43433 0 0-40.779152c-33.181903 2.282652-64.80766 4.566304-94.804123 6.796592-12.665613 4.566304-24.515379 6.796592-35.551696 6.796592-9.479973 0-14.220558-5.628384-14.220558-16.99128l-2.369793-6.796592c0-24.903515 3.924739-41.894795 11.850965-50.97384 9.481172-2.230088 18.960145-3.398296 28.441317-3.398296 7.888452 0 14.220758 1.168208 18.960145 3.398296l87.693744 0L644.538083 423.970548l-35.551696 0c-11.072893 0-26.071524 1.168208-45.031868 3.398296-18.960145 2.282652-33.180903 2.282652-42.662075 0-12.665613 2.282652-18.183272-1.115644-16.590352-10.194888 0-2.230088 0-6.796592 0-13.592984 1.555146-9.02668 2.369793-16.99128 2.369793-23.787872s3.147866-13.592984 9.480172-20.389576c7.888452-2.230088 16.591551-3.398296 26.071524-3.398296 4.740586 0 10.258245 1.168208 16.591551 3.398296l82.953158 0c-3.18544-9.02668-3.963513-18.105924-2.370793-27.186168 0-9.02668 3.148865-13.592984 9.481172-13.592984 3.147866 0 7.110379 1.168208 11.850965 3.398296 4.739587 2.282652 9.481172 2.282652 14.220558 0 1.555146 0 3.147866 0 4.739587 0 15.775704-2.230088 23.700731 4.566504 23.700731 20.389576 0 4.566504-0.814648 7.9646-2.369793 10.194888-1.591721 2.283652-1.591721 4.566504 0 6.796592l111.394475 0c3.147866-2.230088 9.481172-4.51274 18.960145-6.796592 15.775904 4.566504 25.257076 14.761192 28.442516 30.584464 0 4.566504-0.815847 7.9646-2.370793 10.194888-3.184441 4.566304-3.962513 7.9646-2.369793 10.194688-3.184441 2.282652-3.962513 21.557784-2.369593 57.769432l18.960145 0c22.10901 2.282652 37.921289 0 47.402461-6.796592l0 20.389576c-6.333306 33.98256-18.183272 54.372136-35.551696 61.168728-3.184441 0-8.7021 0-16.590352 0-7.925027 0-13.442486-1.115644-16.590352-3.398296l0 3.398296C850.733083 545.192559 851.510156 557.671099 853.102876 573.494171zM565.244644 732.63987l0 64.566024 234.638915 0 2.369793-64.566024c-39.514209 0-79.028219 0-118.503655 0C642.643568 732.63987 603.167133 732.63987 565.244644 732.63987zM695.600463 423.397736c0 11.364095 0 23.787872 0 37.380856l106.653889 0c0-11.309332-0.814648-23.787872-2.369793-37.380856C765.110935 423.397736 730.336312 423.397736 695.600463 423.397736zM695.600463 521.948519c0 13.591985 0 27.184969 0 40.778152 34.735849 0 69.510472 0 104.283096 0L799.883559 525.345816c-14.220758 0-29.255964 0-45.031669 0C740.632131 523.116727 720.856339 521.948519 695.600463 521.948519z" p-id="2490" fill="#13227a"></path></svg>